<?xml version="1.0" standalone="no"?>
<!DOCTYPE svg PUBLIC "-//W3C//DTD SVG 20010904//EN"
 "http://www.w3.org/TR/2001/REC-SVG-20010904/DTD/svg10.dtd">
<svg version="1.0" xmlns="http://www.w3.org/2000/svg"
 width="1920.000000pt" height="1920.000000pt" viewBox="0 0 1920.000000 1920.000000"
 preserveAspectRatio="xMidYMid meet">
<metadata>
Created by potrace 1.14, written by Peter Selinger 2001-2017
</metadata>
<g transform="translate(0.000000,1920.000000) scale(0.100000,-0.100000)"
fill="#000000" stroke="none">
<path d="M16072 16954 c65 -66 136 -146 159 -179 23 -33 49 -68 59 -77 46 -43
210 -319 210 -353 0 -8 13 -41 29 -73 15 -31 45 -109 66 -172 21 -63 45 -128
53 -144 8 -16 23 -73 33 -125 11 -53 24 -107 29 -121 5 -14 12 -42 14 -62 2
-21 7 -41 10 -46 5 -8 9 -39 21 -149 3 -27 8 -59 10 -73 44 -215 53 -1061 21
-1810 -2 -47 -7 -292 -10 -545 -9 -721 -16 -1079 -22 -1097 -3 -10 -1 -32 4
-50 5 -19 6 -43 1 -54 -7 -21 -17 -605 -24 -1534 -6 -720 -15 -1478 -20 -1595
-3 -55 -7 -266 -10 -470 -8 -610 -14 -886 -21 -970 -3 -44 -8 -170 -10 -280
-2 -110 -6 -211 -9 -225 -3 -14 -7 -86 -10 -161 -2 -75 -8 -181 -14 -235 -6
-55 -12 -173 -15 -264 -2 -91 -7 -172 -11 -181 -3 -9 -8 -52 -9 -95 -4 -81
-20 -237 -33 -309 -3 -22 -8 -56 -9 -75 -2 -19 -10 -73 -19 -120 -9 -47 -18
-96 -20 -110 -7 -41 -56 -203 -67 -225 -6 -11 -17 -47 -24 -80 -7 -33 -24 -98
-37 -145 -14 -47 -33 -112 -42 -145 -9 -33 -20 -62 -24 -65 -8 -6 -28 -50 -62
-135 -13 -33 -33 -76 -45 -95 -11 -19 -25 -46 -29 -60 -8 -27 -47 -87 -118
-186 -25 -33 -48 -71 -52 -85 -4 -13 -17 -35 -30 -49 -13 -14 -38 -48 -56 -76
-56 -84 -167 -216 -223 -264 -29 -25 -66 -64 -83 -88 -30 -42 -59 -67 -163
-141 -30 -21 -64 -49 -75 -61 -11 -12 -36 -31 -55 -41 -19 -11 -46 -28 -60
-38 -14 -10 -56 -39 -95 -64 -38 -24 -78 -54 -88 -65 -10 -11 -57 -37 -105
-58 -48 -21 -92 -42 -99 -47 -28 -21 -89 -47 -109 -47 -12 0 -32 -8 -45 -19
-13 -10 -42 -26 -64 -36 -22 -9 -54 -24 -72 -33 -18 -9 -35 -13 -39 -9 -4 3
-16 1 -27 -5 -12 -6 -64 -21 -116 -33 -120 -29 -228 -63 -236 -74 -2 -5 -38
-12 -77 -16 -40 -4 -84 -12 -98 -17 -14 -6 -64 -12 -113 -14 -77 -3 -214 -22
-287 -40 -14 -3 -74 -10 -135 -14 -60 -4 -122 -13 -136 -18 -15 -6 -29 -8 -32
-5 -14 13 -177 9 -240 -6 -51 -12 -70 -13 -75 -4 -9 14 -51 16 -196 7 -79 -5
-107 -3 -102 5 8 12 -77 5 -104 -9 -8 -5 -53 -8 -100 -8 -489 0 -1125 -9
-1187 -17 -42 -5 -67 -4 -76 3 -8 7 -86 10 -237 7 -124 -2 -430 -6 -680 -10
-253 -4 -456 -11 -458 -16 -4 -11 -132 -12 -132 -1 0 5 -21 8 -47 9 -27 0 -86
1 -133 3 -53 1 -96 -3 -115 -11 -22 -9 -104 -13 -310 -13 -154 -1 -284 -4
-290 -7 -5 -4 -142 -9 -302 -10 -161 -2 -293 -6 -293 -9 0 -3 -60 -5 -132 -5
-219 0 -602 -16 -621 -27 -10 -5 -77 -9 -150 -8 -73 1 -181 -1 -242 -4 -60 -2
-209 -7 -330 -10 -380 -10 -588 -17 -655 -22 -101 -8 -229 -13 -430 -18 -102
-2 -228 -7 -280 -10 -52 -3 -198 -8 -325 -10 -126 -3 -276 -9 -332 -15 -71 -7
-111 -7 -130 0 -19 7 -47 7 -95 -2 -51 -9 -81 -9 -120 -1 -29 6 -147 15 -263
21 -202 9 -278 16 -296 27 -5 2 -47 7 -95 10 -48 2 -96 10 -108 16 -11 6 -34
13 -51 14 -16 2 -48 10 -70 18 -22 8 -58 17 -80 19 -45 6 -272 72 -289 85 -6
5 -23 9 -38 10 -14 1 -60 17 -101 37 -40 19 -77 35 -81 35 -12 0 -134 59 -140
68 -2 4 -60 36 -129 71 -137 69 -269 171 -431 334 -49 49 -85 83 -81 76 5 -8
36 -54 68 -104 357 -536 872 -967 1469 -1230 326 -144 658 -232 1043 -277 165
-19 9595 -19 9770 0 817 91 1537 434 2102 1000 552 555 885 1243 990 2047 17
134 18 352 18 4930 0 4562 -1 4797 -18 4935 -99 792 -434 1487 -982 2036 -195
195 -372 339 -575 466 l-65 40 117 -118z"/>
<path d="M6312 15529 c-389 -51 -725 -342 -831 -721 -11 -40 -25 -116 -31
-168 -8 -67 -10 -1586 -8 -5115 l3 -5020 27 -97 c52 -189 133 -327 300 -510
146 -159 288 -260 498 -353 184 -82 454 -145 775 -181 71 -8 137 -16 145 -19
20 -6 271 -26 390 -31 52 -2 131 -8 175 -14 44 -6 170 -15 280 -19 215 -9 327
-17 355 -26 10 -3 21 -1 25 4 6 11 34 8 115 -10 25 -6 99 -10 165 -8 170 3
265 0 300 -11 30 -9 226 -14 342 -8 35 2 63 0 63 -4 0 -4 30 -7 68 -6 37 0
103 -3 147 -9 44 -5 141 -8 215 -6 74 2 194 4 265 4 624 -2 1056 0 1135 4 52
3 208 7 345 9 166 2 285 8 355 19 100 15 268 30 485 42 55 3 111 7 125 10 14
2 74 9 134 15 60 6 118 16 128 21 10 5 35 12 56 14 108 13 127 18 366 91 43
14 91 33 106 44 16 11 31 20 35 20 3 0 25 13 48 29 23 15 61 38 83 49 82 41
211 172 317 319 64 89 151 314 179 463 33 183 61 422 72 625 3 55 8 125 11
155 8 87 17 364 20 625 2 132 6 288 10 347 8 132 9 1879 0 2193 -3 127 -10
291 -15 365 -5 74 -12 243 -15 375 -3 132 -7 292 -10 355 -2 63 -7 183 -10
265 -3 83 -12 222 -20 310 -7 88 -17 223 -20 300 -3 77 -10 183 -15 235 -12
124 -18 195 -30 365 -5 77 -12 163 -15 190 -37 372 -64 684 -75 880 -5 94 -14
238 -20 320 -5 83 -12 627 -14 1210 -5 1189 -1 1127 -81 1340 -68 181 -112
250 -258 401 -154 160 -306 251 -512 307 l-80 22 -3270 1 c-1798 1 -3298 -2
-3333 -7z m875 -4390 c349 -48 626 -285 730 -626 23 -77 26 -106 27 -228 1
-94 -4 -160 -14 -200 l-15 -60 -3 69 c-2 38 2 82 9 98 13 32 13 33 -18 42 -25
8 -41 -20 -123 -207 -63 -146 -185 -298 -303 -379 -65 -44 -210 -118 -293
-149 -30 -11 -54 -25 -54 -30 0 -5 10 -19 21 -30 19 -19 29 -21 98 -16 l76 5
-45 -15 c-62 -21 -270 -28 -356 -14 -101 18 -208 57 -299 110 -107 62 -254
209 -312 311 -116 205 -149 441 -93 662 108 430 531 717 967 657z m2631 -19
c104 -26 262 -107 342 -173 201 -168 311 -397 314 -652 1 -123 -10 -209 -25
-199 -6 3 -8 16 -5 28 3 15 -4 30 -25 50 -16 16 -32 27 -35 24 -3 -4 -25 -53
-48 -110 -59 -142 -180 -324 -259 -389 -31 -25 -182 -119 -192 -119 -12 0
-160 -73 -172 -85 -7 -8 -22 -17 -33 -20 -11 -3 -20 -10 -20 -15 0 -10 19 -16
80 -24 76 -11 79 -22 8 -35 -464 -80 -914 225 -1009 684 -27 126 -22 299 11
415 96 337 386 592 731 640 89 12 244 3 337 -20z m2490 4 c143 -29 318 -120
401 -208 32 -32 35 -42 37 -103 2 -38 10 -85 19 -107 21 -49 25 -343 6 -426
-70 -303 -244 -511 -520 -620 -99 -38 -187 -51 -349 -51 -84 0 -156 2 -160 5
-4 2 -27 7 -52 10 -48 7 -61 9 -100 19 -14 4 -41 8 -60 10 -29 3 -44 14 -88
68 -77 93 -149 244 -174 365 -26 125 -21 299 12 414 91 321 356 565 681 629
75 15 264 12 347 -5z m-4993 -2523 c290 -86 514 -308 601 -596 24 -79 27 -108
28 -230 1 -143 -7 -201 -25 -190 -5 4 -7 16 -3 27 4 13 -1 26 -14 38 -11 11
-22 25 -26 32 -8 20 -37 -25 -72 -116 -34 -87 -109 -214 -184 -311 -50 -66
-98 -101 -265 -195 -143 -82 -161 -103 -98 -115 20 -4 45 -13 56 -20 17 -12
11 -15 -55 -30 -106 -25 -280 -23 -390 3 -577 140 -853 795 -550 1307 56 94
201 244 284 293 84 50 204 99 283 116 102 23 335 16 430 -13z m2463 14 c162
-34 301 -106 419 -219 129 -121 210 -257 254 -421 33 -123 31 -395 -3 -395 -6
0 -8 11 -5 28 4 21 -1 33 -22 55 -35 35 -39 31 -90 -96 -33 -84 -61 -130 -188
-313 -43 -62 -125 -122 -268 -195 -173 -88 -194 -109 -122 -125 17 -3 40 -12
50 -19 15 -11 10 -14 -40 -23 -193 -37 -368 -14 -542 69 -238 113 -398 305
-473 566 -30 105 -32 332 -4 438 85 324 349 579 671 650 83 18 278 18 363 0z
m2488 4 c131 -23 261 -77 369 -154 96 -69 105 -82 109 -161 2 -38 11 -89 21
-114 13 -36 16 -82 16 -220 0 -159 -2 -183 -26 -265 -35 -122 -63 -181 -128
-267 -144 -194 -335 -308 -563 -337 -90 -11 -295 -6 -364 9 -25 5 -58 12 -75
14 -67 12 -133 32 -149 45 -30 25 -102 132 -139 207 -81 161 -107 371 -69 555
62 299 282 549 572 651 127 45 299 60 426 37z m-4365 -1062 c-10 -9 -11 -8 -5
6 3 10 9 15 12 12 3 -3 0 -11 -7 -18z m1817 -1447 c452 -59 786 -463 759 -919
-25 -414 -322 -748 -731 -820 -40 -7 -513 -11 -1417 -11 -1449 0 -1407 -1
-1549 48 -284 99 -497 339 -567 639 -25 111 -23 300 6 408 90 338 361 588 704
650 57 10 356 13 1397 14 779 0 1355 -4 1398 -9z m2572 -11 c138 -26 300 -103
390 -185 l57 -53 6 -74 c3 -40 12 -91 21 -112 21 -49 24 -352 6 -430 -31 -129
-65 -208 -134 -310 -123 -184 -298 -297 -536 -345 -62 -12 -320 -12 -377 0
-21 5 -54 11 -74 14 -83 13 -154 37 -182 63 -84 79 -175 265 -204 418 -20 105
-12 281 17 385 68 242 233 441 455 550 185 91 356 115 555 79z"/>
</g>
</svg>
